<?xml version="1.0" standalone="no"?>
<!DOCTYPE svg PUBLIC "-//W3C//DTD SVG 20010904//EN"
 "http://www.w3.org/TR/2001/REC-SVG-20010904/DTD/svg10.dtd">
<svg version="1.0" xmlns="http://www.w3.org/2000/svg"
 width="500.000000pt" height="168.000000pt" viewBox="0 0 500.000000 168.000000"
 preserveAspectRatio="xMidYMid meet">
<metadata>
Created by potrace 1.11, written by Peter Selinger 2001-2013
</metadata>
<g transform="translate(0.000000,168.000000) scale(0.100000,-0.100000)"
fill="#000000" stroke="none">
<path d="M0 840 l0 -840 525 0 c343 0 525 3 525 10 0 6 5 10 11 10 5 0 7 -5 4
-10 -4 -6 13 -10 44 -10 44 0 50 3 54 22 l4 23 2 -22 c0 -13 8 -23 16 -23 8 0
12 6 9 14 -3 8 -1 17 5 21 10 5 15 -7 12 -27 0 -5 3 -8 9 -8 5 0 10 9 10 20 0
11 5 20 10 20 9 0 14 -14 11 -32 -3 -18 17 -6 24 14 l8 23 4 -22 c6 -29 20
-29 26 -1 l4 23 8 -22 c4 -13 11 -23 16 -23 5 0 9 10 10 23 0 21 1 21 11 -3
l10 -25 11 25 c10 25 10 25 14 3 3 -13 8 -23 13 -23 4 0 11 10 15 23 l8 22 4
-22 c4 -20 25 -35 22 -15 -1 4 -1 14 0 22 1 13 2 13 12 0 8 -11 12 -12 16 -2
8 19 23 14 23 -8 0 -11 5 -20 10 -20 6 0 10 9 10 21 0 12 4 17 11 14 6 -4 8
-13 5 -21 -5 -12 139 -14 974 -14 973 0 980 0 980 20 0 11 7 20 15 20 8 0 15
-9 15 -20 0 -11 4 -20 9 -20 5 0 7 9 4 20 -4 14 0 20 10 20 9 0 18 -10 20 -22
l4 -23 2 23 c1 24 16 30 24 10 4 -10 6 -10 6 0 1 16 31 16 31 0 0 -9 3 -9 12
0 10 10 15 7 25 -10 l12 -23 1 23 c0 12 5 22 10 22 6 0 10 -5 10 -12 0 -9 3
-9 12 0 18 18 26 15 31 -10 l4 -23 2 23 c0 14 6 22 14 19 6 -2 11 -12 11 -21
-1 -9 2 -16 7 -16 5 0 9 9 9 20 0 22 15 27 23 8 4 -10 8 -10 15 1 11 15 27 -2
17 -19 -4 -7 188 -10 569 -10 l576 0 0 840 0 840 -495 0 c-433 0 -495 -2 -495
-15 0 -8 -4 -15 -10 -15 -5 0 -7 7 -4 15 4 8 1 15 -5 15 -6 0 -11 -7 -11 -16
0 -9 -6 -14 -12 -11 -7 2 -12 10 -11 16 2 6 -2 11 -7 11 -6 0 -10 -7 -10 -15
0 -21 -18 -19 -23 3 -4 16 -5 16 -6 0 0 -10 -8 -18 -17 -18 -10 0 -14 6 -10
15 7 20 -11 19 -22 -1 -7 -13 -34 -16 -173 -16 -207 0 -199 -1 -199 17 0 13
-114 15 -970 15 -814 0 -970 -2 -970 -14 0 -10 -20 -14 -85 -15 -46 0 -88 -1
-92 -2 -4 -1 -27 -1 -50 0 -30 1 -43 6 -46 19 -4 14 -5 15 -6 1 -2 -25 -62
-32 -69 -7 -2 10 -8 18 -13 18 -5 0 -6 -7 -3 -15 4 -9 0 -15 -10 -15 -10 0
-13 6 -10 15 4 8 1 15 -5 15 -6 0 -11 -6 -11 -13 0 -9 -12 -14 -30 -15 -20 0
-30 4 -30 14 0 8 -4 14 -10 14 -5 0 -7 -7 -4 -15 4 -8 1 -15 -5 -15 -6 0 -11
7 -11 15 0 8 -4 15 -10 15 -5 0 -7 -7 -4 -15 4 -8 1 -15 -5 -15 -6 0 -11 7
-11 15 0 13 -64 15 -515 15 l-515 0 0 -840z m2564 560 c14 -13 16 -25 11 -49
-7 -33 -25 -42 -26 -13 0 14 -2 14 -8 -3 -5 -11 -5 -22 0 -25 4 -3 4 -12 -1
-20 -7 -10 -10 -11 -10 -2 0 6 -3 12 -7 12 -10 0 -10 -61 0 -77 6 -9 15 -9 34
-2 14 5 28 7 31 5 3 -3 -7 -10 -22 -16 -39 -15 -119 -12 -142 4 -18 14 -18 15
9 44 19 20 28 38 25 53 -3 22 -7 24 -59 22 -49 -3 -57 0 -62 16 -8 30 28 55
96 67 72 12 105 8 131 -16z m-373 -6 c33 -16 68 -51 69 -67 0 -10 -140 1 -154
12 -24 19 -207 33 -223 17 -4 -3 0 -6 8 -7 8 0 46 -2 84 -3 73 -4 155 -23 155
-38 0 -4 -9 -8 -20 -8 -11 0 -20 6 -20 13 0 9 -2 9 -8 0 -6 -9 -54 -12 -189
-10 l-181 2 -38 31 c-62 50 -58 54 60 54 64 0 106 4 106 10 0 6 59 10 158 10
127 0 166 -3 193 -16z m1179 -11 c-1 -15 -35 -49 -71 -71 -32 -19 -47 -22
-125 -18 -49 2 -120 5 -157 5 -43 1 -66 5 -62 11 3 6 -1 10 -10 10 -9 0 -13
-4 -10 -10 4 -6 -7 -10 -24 -10 -17 0 -31 4 -31 8 0 16 74 31 168 36 66 3 99
9 111 20 22 20 45 21 38 1 -4 -8 -2 -17 3 -20 6 -4 10 5 10 19 0 26 1 26 80
26 44 0 80 -3 80 -7z m-1527 -111 c5 -1 5 -8 1 -14 -6 -10 -4 -10 7 0 9 8 53
12 146 12 122 0 133 -2 143 -20 9 -17 6 -24 -16 -45 -26 -24 -61 -35 -49 -15
7 11 -8 14 -18 4 -3 -4 -30 -7 -59 -7 -89 1 -100 2 -92 15 5 7 3 8 -6 3 -7 -4
-16 -2 -22 6 -8 11 -9 10 -4 -3 3 -10 2 -18 -2 -18 -21 0 -91 62 -92 81 0 5
38 5 63 1z m1387 -2 c-1 -11 -37 -48 -68 -69 -32 -22 -37 -23 -187 -16 -85 4
-155 11 -155 15 0 4 8 14 18 23 14 13 25 14 57 6 22 -6 54 -13 70 -15 25 -4
22 -1 -15 15 -25 11 -54 20 -65 20 -12 1 -16 4 -9 11 12 12 354 22 354 10z
m-1016 -127 c10 -25 7 -27 -15 -7 -21 19 -21 19 -18 -1 3 -15 12 -20 34 -20
34 -1 82 -29 66 -39 -5 -4 -61 -7 -124 -7 -128 -1 -162 9 -213 62 l-29 30 147
-2 c118 -1 148 -4 152 -16z m865 -1 c-6 -10 -27 -29 -47 -43 -32 -21 -48 -24
-154 -27 -156 -5 -162 -2 -107 48 l44 39 138 1 c130 0 137 -1 126 -18z m-561
-354 c16 -16 15 -28 -3 -28 -8 0 -15 -5 -15 -10 0 -6 7 -13 15 -16 8 -4 15
-15 15 -26 0 -14 -5 -18 -15 -14 -9 3 -15 0 -15 -10 0 -8 5 -12 10 -9 6 3 10
1 10 -4 0 -6 -13 -11 -30 -11 -44 0 -37 -16 11 -24 26 -4 39 -11 36 -19 -2 -6
-11 -11 -21 -9 -23 4 -20 -15 4 -21 11 -3 20 -12 20 -20 0 -10 7 -13 20 -10
11 3 20 0 20 -6 0 -13 -44 -25 -65 -17 -8 3 -12 12 -9 21 4 9 1 15 -9 15 -8 0
-17 9 -20 21 -3 11 -11 19 -19 18 -21 -3 -78 13 -78 21 0 5 6 10 13 13 7 3 2
8 -12 14 -33 13 -38 77 -7 91 42 21 85 30 107 25 18 -5 21 -3 16 10 -7 20 4
22 21 5z"/>
</g>
</svg>
